<svg width="" height="" viewBox="0 0 24 24" fill="none" xmlns="http://www.w3.org/2000/svg">
<path d="M12 22C17.523 22 22 17.523 22 12C22 6.477 17.523 2 12 2C6.477 2 2 6.477 2 12C2 17.523 6.477 22 12 22Z" stroke="#666666" stroke-width="1.5" stroke-linecap="round" stroke-linejoin="round"/>
<path d="M14.333 19.0001V17.1371C14.358 16.8271 14.315 16.5171 14.207 16.2241C14.0983 15.9309 13.9278 15.6646 13.707 15.4431C15.8 15.2161 18 14.4431 18 10.8991C17.9981 9.98816 17.6391 9.11429 17 8.46511C17.3042 7.67322 17.2826 6.79315 16.94 6.01711C16.94 6.01711 16.153 5.79011 14.333 6.97811C12.8038 6.57497 11.1962 6.57497 9.66702 6.97811C7.84702 5.79011 7.06002 6.01811 7.06002 6.01811C6.71799 6.79357 6.69642 7.67281 7.00002 8.46411C6.35653 9.1181 5.99716 9.99963 6.00002 10.9171C6.00002 14.4361 8.20002 15.2081 10.293 15.4611C10.0747 15.6806 9.90558 15.9441 9.79702 16.2341C9.68924 16.5219 9.6449 16.8296 9.66702 17.1361V19.0001" stroke="#666666" stroke-width="1.5" stroke-linecap="round" stroke-linejoin="round"/>
<path d="M9.667 17.7019C7.667 18.3329 6 17.7019 5 15.7539" stroke="#666666" stroke-width="1.5" stroke-linecap="round" stroke-linejoin="round"/>
</svg>
