<svg width="" height="" viewBox="0 0 24 24" fill="none" xmlns="http://www.w3.org/2000/svg">
<path d="M13.5441 10.4562C12.7249 9.63744 11.6142 9.17749 10.4561 9.17749C9.2979 9.17749 8.18716 9.63744 7.36805 10.4562L4.27905 13.5442C3.45993 14.3633 2.99976 15.4743 2.99976 16.6327C2.99976 17.7911 3.45993 18.9021 4.27905 19.7212C5.09818 20.5403 6.20914 21.0005 7.36755 21.0005C8.52597 21.0005 9.63693 20.5403 10.4561 19.7212L12.0001 18.1772" stroke="#666666" stroke-width="2" stroke-linecap="round" stroke-linejoin="round"/>
<path d="M10.4561 13.5443C11.2752 14.3631 12.3859 14.823 13.5441 14.823C14.7022 14.823 15.8129 14.3631 16.6321 13.5443L19.7211 10.4563C20.5402 9.63718 21.0004 8.52621 21.0004 7.3678C21.0004 6.20939 20.5402 5.09842 19.7211 4.2793C18.9019 3.46018 17.791 3 16.6326 3C15.4741 3 14.3632 3.46018 13.5441 4.2793L12.0001 5.8233" stroke="#666666" stroke-width="2" stroke-linecap="round" stroke-linejoin="round"/>
</svg>
