<svg width="665" height="208" viewBox="0 0 665 208" fill="none" xmlns="http://www.w3.org/2000/svg">
<path d="M107.012 8.93828e-06C47.8876 -0.0238607 0 47.7631 0 106.745C0 153.386 29.9567 193.034 71.676 207.594C77.2944 209.003 76.4337 205.016 76.4337 202.295V183.796C43.9906 187.591 42.6757 166.157 40.5001 162.576C36.101 155.081 25.701 153.171 28.8091 149.591C36.1966 145.796 43.7276 150.546 52.454 163.412C58.7657 172.745 71.0783 171.169 77.3183 169.618C78.681 164.008 81.5978 158.996 85.6144 155.105C51.9998 149.09 37.9897 128.61 37.9897 104.263C37.9897 92.4471 41.8867 81.5864 49.5373 72.8263C44.66 58.3851 49.9915 46.0207 50.7088 44.1827C64.5993 42.9415 79.0397 54.1125 80.1633 54.9956C88.053 52.8712 97.0663 51.7494 107.155 51.7494C117.292 51.7494 126.33 52.919 134.291 55.0673C136.993 53.0145 150.381 43.4189 163.291 44.5885C163.985 46.4264 169.197 58.5045 164.606 72.7547C172.352 81.5387 176.297 92.4948 176.297 104.334C176.297 128.729 162.192 149.233 128.481 155.153C131.369 157.988 133.661 161.369 135.225 165.098C136.789 168.828 137.593 172.831 137.59 176.874V203.727C137.781 205.876 137.59 208 141.176 208C183.517 193.75 214 153.816 214 106.769C214 47.7631 166.088 8.93828e-06 107.012 8.93828e-06Z" fill="black"/>
<path d="M256.307 190.829V65.3743H291.101V190.829H256.307ZM273.785 49.2024C268.613 49.2024 264.175 47.4872 260.472 44.0568C256.824 40.5719 255 36.4064 255 31.5603C255 26.7687 256.824 22.6577 260.472 19.2273C264.175 15.7424 268.613 14 273.785 14C278.958 14 283.369 15.7424 287.017 19.2273C290.72 22.6577 292.571 26.7687 292.571 31.5603C292.571 36.4064 290.72 40.5719 287.017 44.0568C283.369 47.4872 278.958 49.2024 273.785 49.2024ZM353.767 118.301V190.829H318.973V65.3743H352.133V87.5085H353.603C356.381 80.2121 361.036 74.4403 367.57 70.1931C374.104 65.8915 382.027 63.7407 391.338 63.7407C400.05 63.7407 407.646 65.6465 414.126 69.4581C420.605 73.2696 425.642 78.7147 429.236 85.7933C432.829 92.8174 434.626 101.203 434.626 110.95V190.829H399.832V117.157C399.887 109.479 397.927 103.49 393.952 99.1882C389.977 94.8321 384.504 92.6541 377.535 92.6541C372.852 92.6541 368.714 93.6614 365.12 95.6761C361.581 97.6908 358.804 100.631 356.789 104.497C354.829 108.309 353.821 112.91 353.767 118.301ZM529.514 65.3743V91.5106H452.085V65.3743H529.514ZM469.808 190.829V56.3082C469.808 47.2149 471.578 39.6735 475.117 33.6839C478.711 27.6943 483.612 23.2022 489.819 20.2074C496.026 17.2126 503.078 15.7152 510.973 15.7152C516.309 15.7152 521.183 16.1236 525.593 16.9403C530.058 17.7571 533.38 18.4922 535.558 19.1456L529.35 45.2819C527.989 44.8463 526.301 44.4379 524.286 44.0568C522.326 43.6756 520.311 43.485 518.242 43.485C513.124 43.485 509.557 44.683 507.543 47.0788C505.528 49.4202 504.521 52.7145 504.521 56.9616V190.829H469.808ZM602.961 193.279C590.274 193.279 579.302 190.584 570.045 185.193C560.843 179.748 553.737 172.18 548.728 162.487C543.718 152.741 541.214 141.442 541.214 128.592C541.214 115.633 543.718 104.307 548.728 94.6143C553.737 84.8676 560.843 77.299 570.045 71.9083C579.302 66.4633 590.274 63.7407 602.961 63.7407C615.648 63.7407 626.593 66.4633 635.795 71.9083C645.051 77.299 652.184 84.8676 657.194 94.6143C662.203 104.307 664.708 115.633 664.708 128.592C664.708 141.442 662.203 152.741 657.194 162.487C652.184 172.18 645.051 179.748 635.795 185.193C626.593 190.584 615.648 193.279 602.961 193.279ZM603.124 166.326C608.896 166.326 613.715 164.693 617.581 161.426C621.447 158.104 624.36 153.585 626.32 147.867C628.335 142.15 629.342 135.643 629.342 128.347C510.973 128.347 628.335 114.543 626.32 108.826C624.36 103.109 621.447 98.5892 617.581 95.2677C613.715 91.9462 608.896 90.2855 603.124 90.2855C597.298 90.2855 592.397 91.9462 588.423 95.2677C584.502 98.5892 581.535 103.109 579.52 108.826C577.56 114.543 576.579 121.05 576.579 128.347C576.579 135.643 577.56 142.15 579.52 147.867C581.535 153.585 584.502 158.104 588.423 161.426C592.397 164.693 597.298 166.326 603.124 166.326Z" fill="black"/>
</svg>
