<svg width="" height="" viewBox="0 0 49 49" fill="none" xmlns="http://www.w3.org/2000/svg">
<path d="M43.5668 41.2204L36.692 34.499L36.5308 34.2539C36.2312 33.9557 35.8216 33.7876 35.394 33.7876C34.9664 33.7876 34.5568 33.9557 34.2572 34.2539C28.4146 39.614 19.412 39.9053 13.2197 34.9348C7.02739 29.9642 5.567 21.2741 9.80703 14.6277C14.0471 7.98127 22.6718 5.44102 29.9614 8.6916C37.2509 11.9422 40.9433 19.9749 38.5897 27.4625C38.4202 28.0034 38.5587 28.5917 38.9531 29.0057C39.3475 29.4196 39.9379 29.5964 40.5018 29.4695C41.0656 29.3426 41.5174 28.9311 41.6869 28.3902C44.5005 19.5046 40.2511 9.94243 31.6879 5.88944C23.1246 1.83645 12.8173 4.50897 7.43377 12.1782C2.0502 19.8473 3.20602 30.2116 10.1535 36.5663C17.101 42.921 27.7552 43.3591 35.2239 37.5971L41.311 43.5484C41.9396 44.1603 42.956 44.1603 43.5847 43.5484C44.2127 42.9277 44.2127 41.9285 43.5847 41.3079L43.5668 41.2204Z" fill="grey"/>
</svg>
